# xmcd
#
# Track frame offsets:
#	150
#	11350
#	23950
#	36377
#	48532
#	62985
#	75643
#	89007
#	111605
#	124096
#	143980
#	162719
#	179637
#	194037
#	213692
#	231809
#	246479
#	260421
#
# Disc length: 3683 seconds
#
# Revision: 1
# Processed by: cddbd v1.5.2PL0 Copyright (c) Steve Scherf et al.
# Submitted via: audiograbber 1.83.01
#
DISCID=200e6112
DTITLE=Peter Kent - Sådan en som mig
DYEAR=2010
DGENRE=Country
TTITLE0=Og lyset det brød frem (2010)
TTITLE1=Vejen mod vest (Jackson) (2010)
TTITLE2=Du danser forbi (2010)
TTITLE3=Vi savner solskin og sommer (2010)
TTITLE4=Julen er min gamle ven (2010)
TTITLE5=Moon river (2010)
TTITLE6=Mit Danmark (2010)
TTITLE7=Verdens Lykkeligste mand (2010)
TTITLE8=Sådan en som mig (2010)
TTITLE9=Livets grænse (Borderline) (2010)
TTITLE10=Af sted på jobbet igen (2010)
TTITLE11=Hvis du går din vej i morgen (2010)
TTITLE12=En hjemløs fyr (2010)
TTITLE13=Sådan en dag (2010)
TTITLE14=På sølvfuglens vinger (2010)
TTITLE15=Vi er på vej (2010)
TTITLE16=I'm just a country boy (2010)
TTITLE17=The highway pioneer (2010)
EXTD=
EXTT0=
EXTT1=
EXTT2=
EXTT3=
EXTT4=
EXTT5=
EXTT6=
EXTT7=
EXTT8=
EXTT9=
EXTT10=
EXTT11=
EXTT12=
EXTT13=
EXTT14=
EXTT15=
EXTT16=
EXTT17=
PLAYORDER=
